<svg xmlns="http://www.w3.org/2000/svg" width="190" height="157.678" viewBox="0 0 190 157.678">
  <g id="그룹_76" data-name="그룹 76" transform="translate(-112.917 -136.884)">
    <g id="그룹_73" data-name="그룹 73" transform="translate(112.917 136.884)">
      <path id="패스_633" data-name="패스 633" d="M302.9,222.009a44.177,44.177,0,0,0-1.713-10.985,40.1,40.1,0,0,0-4.493-10.337,35.347,35.347,0,0,0-7.434-8.75,38.633,38.633,0,0,0-9.861-5.874c-1.407-.577-2.823-1.079-4.241-1.542.226-.13.453-.257.679-.388,2.093-1.2,4.126-2.441,6.194-3.85a45.294,45.294,0,0,0,5.989-4.767,37.064,37.064,0,0,0,5.133-5.935,25.925,25.925,0,0,0,3.705-7.577,18.135,18.135,0,0,0,.223-9.47,18.977,18.977,0,0,0-4.734-8.271,22.871,22.871,0,0,0-3.395-2.983,20.536,20.536,0,0,0-3.86-2.126,26.288,26.288,0,0,0-8.068-1.784c-2.641-.216-5.187-.2-7.666-.262-4.969-.179-9.708.043-14.379-.118-9.572-.208-19.083-.1-28.528.208l-28.346.688c-9.465.174-18.932.139-28.4.15l-14.2,0-14.2-.072q-14.2-.058-28.395-.274v5.628c1.61-.024,3.22-.039,4.829-.06a8.77,8.77,0,0,1,8.272,7.884l-.578,97.239,0-.03c.007,4.81-3.5,8.861-8.027,9.079h-4.492v6.432h51.795V257.42h-3.9a8.881,8.881,0,0,1-8.036-7.844l.289-48.655c3.821,2.655,7.329,6.693,10.932,11.207l6.138,7.729q3.189,3.945,6.764,7.875t7.491,7.758c2.6,2.561,5.318,5.085,8.2,7.488,1.442,1.2,2.943,2.351,4.475,3.478.761.574,1.552,1.086,2.356,1.642,0,0,45.087,32.956,85.864,6.749l-.037.01a38.414,38.414,0,0,0,12.011-11.76A36.647,36.647,0,0,0,302.9,222.009ZM226.544,143.57c9.482.028,18.9-.3,28.259,0,4.787.153,9.524.224,14,.771A28.428,28.428,0,0,1,275.19,146a39.982,39.982,0,0,1,5.395,2.622,25.121,25.121,0,0,1,4.311,3l.464.442.434.473c.162.16.254.3.381.453a4.218,4.218,0,0,1,.344.445,7.115,7.115,0,0,1,1.016,1.869,9.028,9.028,0,0,1,.346,4.566,20.179,20.179,0,0,1-1.835,5.436,41.749,41.749,0,0,1-7.676,10.4c-2.7,2.451-5.635,4.925-8.561,7.3-.312-.077-.625-.162-.936-.236-3.5-.845-6.961-1.526-10.38-2.2s-6.8-1.362-10.118-2.141a20.812,20.812,0,0,1-8.04-3.958,40.846,40.846,0,0,1-9.344-10.979c-3.236-5.932-6.175-15.786-7.331-19.908C224.623,143.575,225.585,143.579,226.544,143.57Zm-73.4,43.7.211-35.574h0c.23-4.936,4.127-8.905,8.821-8.686l-.227-.034,7.759,0c8.944,0,17.886-.035,26.83.1,2.088.293,5.982,1.4,2.037,5.513ZM291.8,233.895a19.441,19.441,0,0,1-1.4,5.335,29.622,29.622,0,0,1-6.935,9.663q-.478.472-.976.93a28.6,28.6,0,0,1-15.343,6.96,48.839,48.839,0,0,1-12.2-.454c-1.787-.31-3.563-.675-5.321-1.11a82.975,82.975,0,0,1-12.984-4.395,98.619,98.619,0,0,1-17.113-9.473c-1.328-.909-2.61-1.867-3.861-2.831s-2.471-1.938-3.614-2.936c-.587-.488-1.135-.989-1.68-1.487l-1.693-1.629c-1.144-1.084-2.246-2.231-3.363-3.374-2.235-2.282-4.419-4.68-6.583-7.163s-4.284-5.076-6.482-7.677A122,122,0,0,0,177.318,198.9a64.831,64.831,0,0,0-9.669-6.835,38.169,38.169,0,0,0-8.486-3.585l49.5-42.142.373-.318h0s9.564-6.16,8.417,1.739l.006-.01c-.187,1.038-.363,2.078-.522,3.121a105.767,105.767,0,0,0-1.124,11.072,67.621,67.621,0,0,0,.34,11.224,33.711,33.711,0,0,0,2.817,10.278c-.9,1.87-1.752,3.732-2.587,5.626a70.894,70.894,0,0,0-2.548,6.654,17.59,17.59,0,0,0-.8,3.718,4.748,4.748,0,0,0,.372,2.489,2.62,2.62,0,0,0,1.445,1.3c.192.071.224.073.306.1l.223.065.446.127c1.681.443,3.322.762,5,1.046-.068.692-.08,1.389-.105,2.1a19.136,19.136,0,0,0,.3,4.229,5.635,5.635,0,0,0,.425,1.254,3.242,3.242,0,0,0,.5.743,2.285,2.285,0,0,0,1.009.663,2,2,0,0,0,.318.073l.158.019.078,0,.27,0,.521-.011,1-.06c.289-.023.569-.059.855-.088l0,0a4.828,4.828,0,0,0-1.068,1.545,2.92,2.92,0,0,0-.182.747,2.3,2.3,0,0,0,.639,1.83,3.255,3.255,0,0,0,.261.232l.115.092.277.22c.8.617,1.452,1.088,2.193,1.613q.782.548,1.608,1.049a21.473,21.473,0,0,0,1.079,4.381,31.48,31.48,0,0,0,2.154,5.017,12.93,12.93,0,0,0,.79,1.248,5.654,5.654,0,0,0,1.207,1.271,2.79,2.79,0,0,0,1.073.481,3.6,3.6,0,0,0,.98.051,5.574,5.574,0,0,0,1.565-.39,13.835,13.835,0,0,0,2.482-1.314,24.93,24.93,0,0,0,2.194-1.578l.018-.014a.571.571,0,0,0,.066-.06,26.088,26.088,0,0,1,5.977-4.467,23.263,23.263,0,0,1,7.1-2.565,18.984,18.984,0,0,1,7.584.072,56.05,56.05,0,0,1,7.35,2.266,56.264,56.264,0,0,0-7.307-2.456,19.591,19.591,0,0,0-7.713-.44,26.136,26.136,0,0,0-7.49,2.185,27.232,27.232,0,0,0-6.635,4.294l.084-.074A13.8,13.8,0,0,1,238.2,230.8a3.211,3.211,0,0,1-.972.074.962.962,0,0,1-.3-.081c-.084-.053,0-.026-.072-.1a3.684,3.684,0,0,1-.425-.721,10.22,10.22,0,0,1-.413-1.041,41.831,41.831,0,0,1-1.205-4.764,45.914,45.914,0,0,0-1.185-4.883h0a1.286,1.286,0,0,0-.45-.921l-.346-.293a20.479,20.479,0,0,0-2.23-1.613c-.663-.437-1.424-.848-2.092-1.2l.026-.061c.322-.717.774-1.514,1.17-2.321h0a.761.761,0,0,0-.392-1.378l-.21-.014c-1.262-.083-2.54-.169-3.778-.3l-.914-.108-.3-.047,0-.029a4.3,4.3,0,0,1-.065-.593,16.632,16.632,0,0,1,.31-3.419,24.434,24.434,0,0,0,.568-3.605h0l-.035-.688v-.01a1.649,1.649,0,0,0-1.748-1.544,23.36,23.36,0,0,1-6.564-.556l-.535-.137a2.931,2.931,0,0,1-.029-.8,14.9,14.9,0,0,1,.659-3.061,51.118,51.118,0,0,1,2.484-6.289c.942-2.07,2-4.126,3.1-6.1h0l.027-.053a1.614,1.614,0,0,0-.039-1.518,29.6,29.6,0,0,1-3.136-9.881,64.793,64.793,0,0,1-.632-10.73c.036-2.305.176-4.615.38-6.921a99.721,99.721,0,0,0,.348,11.829,38.215,38.215,0,0,0,3.727,13.647,29.825,29.825,0,0,0,9.644,10.951,47.449,47.449,0,0,0,12.9,6.18,86.244,86.244,0,0,0,13.6,3.055c1.125.178,2.313.311,3.387.461.995.121,1.983.287,2.968.472a48.983,48.983,0,0,1,5.807,1.537,38.525,38.525,0,0,1,10.625,5.3l1.173.886,1.124.937,1.075.984c.346.326.614.639.93.954a16.856,16.856,0,0,1,2.87,4.438,34.471,34.471,0,0,1,2.62,11.324c.1,1.032.164,2.082.218,3.139A19.3,19.3,0,0,1,291.8,233.895Zm-68.08-22.93h.04a.612.612,0,0,1,.087.013c.027.009.039.016.061.024l-.147-.027A.274.274,0,0,1,223.725,210.964Zm4.606,4.753a.734.734,0,0,1,0,.24c-.013.076-.043.1-.047.08A.662.662,0,0,1,228.331,215.717Zm64.409-9.332c-.459-.478-.929-1-1.389-1.431l-1.379-1.264-1.431-1.195-1.481-1.122a47.351,47.351,0,0,0-13.065-6.619,44.186,44.186,0,0,0-7.108-1.647c-1.207-.163-2.416-.3-3.632-.384-1.132-.087-2.158-.119-3.236-.214a78.636,78.636,0,0,1-12.531-1.883,40.684,40.684,0,0,1-11.39-4.461,24.7,24.7,0,0,1-8.451-8.218,33.371,33.371,0,0,1-4.16-11.623,125.554,125.554,0,0,1-1.408-12.507,70.349,70.349,0,0,0,2.173,6.969,56.84,56.84,0,0,0,4.778,9.866,38.337,38.337,0,0,0,7.229,8.723,26.354,26.354,0,0,0,10.405,5.722c3.473.935,6.928,1.751,10.371,2.48,6.858,1.515,13.655,2.72,19.688,5.079A33.5,33.5,0,0,1,285,197.219a30.869,30.869,0,0,1,6.484,6.861,30.391,30.391,0,0,1,1.825,2.989C293.119,206.842,292.941,206.6,292.741,206.385Z" transform="translate(-112.917 -136.884)" fill="#fff"/>
    </g>
    <g id="그룹_74" data-name="그룹 74" transform="translate(119.794 279.623)">
      <path id="패스_634" data-name="패스 634" d="M132.9,329.146h-3.6l-4.6-6.37a5.054,5.054,0,0,1-.383-.707h-.049v7.077h-2.8V314.7h2.8v6.831h.049a6.109,6.109,0,0,1,.392-.726l4.4-6.105h3.367l-5.379,6.9Z" transform="translate(-121.47 -314.462)" fill="#fff"/>
      <path id="패스_635" data-name="패스 635" d="M136.142,322.052a7.822,7.822,0,0,1,1.959-5.526,6.746,6.746,0,0,1,5.206-2.12,6.4,6.4,0,0,1,4.962,2.057,7.516,7.516,0,0,1,1.88,5.276,7.8,7.8,0,0,1-1.939,5.5,6.643,6.643,0,0,1-5.129,2.105,6.555,6.555,0,0,1-5.02-2.051A7.363,7.363,0,0,1,136.142,322.052Zm2.945-.157a5.741,5.741,0,0,0,1.085,3.606,3.523,3.523,0,0,0,2.949,1.409,3.643,3.643,0,0,0,3.009-1.34,5.65,5.65,0,0,0,1.074-3.636,6.011,6.011,0,0,0-1.04-3.73,3.484,3.484,0,0,0-2.945-1.364,3.617,3.617,0,0,0-3.028,1.428A5.757,5.757,0,0,0,139.087,321.9Z" transform="translate(-124.345 -314.405)" fill="#fff"/>
      <path id="패스_636" data-name="패스 636" d="M168.788,329.146h-3.239l-2.3-3.818a5.524,5.524,0,0,0-1.188-1.522,1.752,1.752,0,0,0-1.06-.363h-1.02v5.7h-2.8V314.7h4.907q5.005,0,5.006,3.907a3.88,3.88,0,0,1-.839,2.488,4.538,4.538,0,0,1-2.39,1.5v.039a5.071,5.071,0,0,1,2.189,2.228Zm-8.8-12.269v4.378h1.668a2.5,2.5,0,0,0,1.82-.663,2.208,2.208,0,0,0,.683-1.653q0-2.061-2.454-2.062Z" transform="translate(-128.468 -314.462)" fill="#fff"/>
      <path id="패스_637" data-name="패스 637" d="M182.394,329.146h-8.362V314.7h8.038v2.326h-5.241v3.681H181.7v2.316h-4.868v3.808h5.565Z" transform="translate(-131.768 -314.462)" fill="#fff"/>
      <path id="패스_638" data-name="패스 638" d="M200.212,329.146H197.16l-1.168-3.455h-5.427l-1.139,3.455h-3.052l5.349-14.448h3.23Zm-4.917-5.674-1.767-5.232a7.3,7.3,0,0,1-.225-1.2h-.069a6.356,6.356,0,0,1-.245,1.178l-1.776,5.251Z" transform="translate(-134.187 -314.462)" fill="#fff"/>
      <path id="패스_639" data-name="패스 639" d="M206.44,329.146V314.7h4.918a5.954,5.954,0,0,1,3.485.888,2.866,2.866,0,0,1,1.256,2.479,3.116,3.116,0,0,1-.736,2.046,4.043,4.043,0,0,1-1.983,1.27v.03a3.947,3.947,0,0,1,2.434,1.139,3.244,3.244,0,0,1,.9,2.336,3.828,3.828,0,0,1-1.393,3.1,5.654,5.654,0,0,1-3.73,1.158Zm2.8-12.3v3.788h1.522a2.668,2.668,0,0,0,1.767-.535,1.856,1.856,0,0,0,.638-1.507q0-1.746-2.493-1.746Zm0,5.948V327h1.924a2.934,2.934,0,0,0,1.924-.569,1.944,1.944,0,0,0,.687-1.581q0-2.052-2.709-2.051Z" transform="translate(-138.118 -314.462)" fill="#fff"/>
      <path id="패스_640" data-name="패스 640" d="M231.233,329.146h-8.362V314.7h8.038v2.326h-5.241v3.681h4.868v2.316h-4.868v3.808h5.565Z" transform="translate(-141.338 -314.462)" fill="#fff"/>
      <path id="패스_641" data-name="패스 641" d="M249.051,329.146H246l-1.168-3.455H239.4l-1.139,3.455h-3.053L240.56,314.7h3.229Zm-4.917-5.674-1.767-5.232a7.3,7.3,0,0,1-.225-1.2h-.069a6.356,6.356,0,0,1-.245,1.178l-1.777,5.251Z" transform="translate(-143.755 -314.462)" fill="#fff"/>
      <path id="패스_642" data-name="패스 642" d="M266.212,323.012q0,6.389-5.909,6.389-5.683,0-5.683-6.213V314.7h2.807v8.49q0,3.78,3.023,3.779,2.965,0,2.965-3.651V314.7h2.8Z" transform="translate(-147.558 -314.462)" fill="#fff"/>
      <path id="패스_643" data-name="패스 643" d="M282.93,317.024H278.8v12.122H275.99V317.024h-4.122V314.7H282.93Z" transform="translate(-150.938 -314.462)" fill="#fff"/>
      <path id="패스_644" data-name="패스 644" d="M299.224,314.7l-4.731,9.256v5.192h-2.8v-5.134L287.1,314.7h3.2l2.581,5.732q.059.137.334,1.09h.039a4.923,4.923,0,0,1,.324-1.07l2.67-5.752Z" transform="translate(-153.922 -314.462)" fill="#fff"/>
      <path id="패스_645" data-name="패스 645" d="M300.944,330.738a1.354,1.354,0,0,1,.5-1.079,1.751,1.751,0,0,1,1.173-.422,1.7,1.7,0,0,1,1.158.422,1.457,1.457,0,0,1,0,2.164,1.763,1.763,0,0,1-1.2.417,1.653,1.653,0,0,1-1.153-.432A1.386,1.386,0,0,1,300.944,330.738Z" transform="translate(-156.634 -317.311)" fill="#fff"/>
      <path id="패스_646" data-name="패스 646" d="M311.712,324.023v5.123h-2.8V314.7h4.771q5.28,0,5.28,4.525a4.366,4.366,0,0,1-1.6,3.524,5.8,5.8,0,0,1-4.009,1.276Zm0-7.1v4.907h1.423q2.895,0,2.9-2.5,0-2.4-2.837-2.4Z" transform="translate(-158.196 -314.462)" fill="#fff"/>
      <path id="패스_647" data-name="패스 647" d="M323.944,325.664a5.99,5.99,0,0,0,3.936,1.423,3.465,3.465,0,0,0,1.993-.466,1.433,1.433,0,0,0,.658-1.222,1.68,1.68,0,0,0-.55-1.208,9.911,9.911,0,0,0-2.66-1.452,6.915,6.915,0,0,1-2.606-1.811,3.649,3.649,0,0,1-.81-2.361,3.576,3.576,0,0,1,1.512-3.058,6.567,6.567,0,0,1,3.965-1.1,8.886,8.886,0,0,1,3.465.55v2.679a5.846,5.846,0,0,0-3.386-.961,3.583,3.583,0,0,0-1.89.441,1.366,1.366,0,0,0-.721,1.217,1.579,1.579,0,0,0,.5,1.129,8.681,8.681,0,0,0,2.346,1.325,7.784,7.784,0,0,1,2.944,1.939,3.732,3.732,0,0,1,.824,2.429,3.63,3.63,0,0,1-1.458,3.116,6.773,6.773,0,0,1-4.088,1.075,8.457,8.457,0,0,1-3.974-.814Z" transform="translate(-161.133 -314.405)" fill="#fff"/>
    </g>
  </g>
</svg>
