<svg xmlns="http://www.w3.org/2000/svg" width="36.993" height="36.993" viewBox="0 0 36.993 36.993">
  <g id="그룹_84" data-name="그룹 84" transform="translate(-1530.425 -4999.033)">
    <rect id="사각형_162" data-name="사각형 162" width="36.993" height="36.993" rx="9.128" transform="translate(1530.425 4999.033)" fill="#fff"/>
    <path id="패스_624" data-name="패스 624" d="M838.3,217.691a8.23,8.23,0,0,1-2.014.575c.324-.054.8-.641.991-.879a3.7,3.7,0,0,0,.669-1.22c.017-.035.031-.078,0-.1a.116.116,0,0,0-.108.009,10.26,10.26,0,0,1-2.389.914.16.16,0,0,1-.165-.044,1.952,1.952,0,0,0-.208-.213,4.23,4.23,0,0,0-1.158-.709,4.023,4.023,0,0,0-1.775-.286,4.226,4.226,0,0,0-1.684.476,4.349,4.349,0,0,0-1.359,1.11,4.162,4.162,0,0,0-.811,1.625,4.414,4.414,0,0,0-.043,1.716c.013.1,0,.109-.082.1a12.762,12.762,0,0,1-8.211-4.179c-.1-.11-.148-.11-.226.008a4.164,4.164,0,0,0,.71,4.919c.16.152.326.3.5.444a4.189,4.189,0,0,1-1.584-.444c-.1-.061-.145-.026-.153.083a2.561,2.561,0,0,0,.027.47,4.207,4.207,0,0,0,2.594,3.356,2.424,2.424,0,0,0,.526.161,4.7,4.7,0,0,1-1.554.048c-.113-.022-.156.035-.113.144a4.372,4.372,0,0,0,3.265,2.734c.148.027.3.027.444.061-.008.013-.018.013-.026.027a5.17,5.17,0,0,1-2.23,1.182,7.984,7.984,0,0,1-3.386.434c-.183-.027-.221-.025-.27,0s-.006.074.052.121c.231.153.466.288.7.419a11.207,11.207,0,0,0,2.264.906,12.058,12.058,0,0,0,11.7-2.737,12.286,12.286,0,0,0,3.239-8.961c0-.129.152-.2.242-.268a7.9,7.9,0,0,0,1.593-1.657.505.505,0,0,0,.106-.318v-.017C838.379,217.639,838.378,217.654,838.3,217.691Z" transform="translate(720.72 4793.703)" fill="#2d2926"/>
  </g>
</svg>
