<svg xmlns="http://www.w3.org/2000/svg" width="36.993" height="36.993" viewBox="0 0 36.993 36.993">
  <g id="그룹_85" data-name="그룹 85" transform="translate(-1583.007 -4999.033)">
    <rect id="사각형_165" data-name="사각형 165" width="36.993" height="36.993" rx="9.128" transform="translate(1583.007 4999.033)" fill="#fff"/>
    <path id="패스_632" data-name="패스 632" d="M839,327.148a4.388,4.388,0,0,0-4.387-4.388H823.389A4.387,4.387,0,0,0,819,327.148v5.221a4.387,4.387,0,0,0,4.387,4.387h11.219A4.387,4.387,0,0,0,839,332.369Zm-6.6,3-5.031,2.488c-.2.108-.868-.036-.868-.26v-5.109c0-.228.676-.37.874-.257l4.816,2.62C832.391,329.746,832.6,330.039,832.4,330.149Z" transform="translate(772.29 4688.15)" fill="#2d2926"/>
  </g>
</svg>
