<svg xmlns="http://www.w3.org/2000/svg" width="36.993" height="36.993" viewBox="0 0 36.993 36.993">
  <g id="그룹_83" data-name="그룹 83" transform="translate(-1477.309 -4999.033)">
    <rect id="사각형_163" data-name="사각형 163" width="36.993" height="36.993" rx="9.128" transform="translate(1477.309 4999.033)" fill="#fff"/>
    <g id="그룹_60" data-name="그룹 60" transform="translate(1485.094 5006.856)">
      <g id="그룹_59" data-name="그룹 59">
        <path id="패스_625" data-name="패스 625" d="M833.519,162.048a1.256,1.256,0,1,0,1.255,1.257A1.257,1.257,0,0,0,833.519,162.048Z" transform="translate(-817.136 -158.223)" fill="#2d2926"/>
        <path id="패스_626" data-name="패스 626" d="M828.175,163.618a5.276,5.276,0,1,0,5.276,5.276A5.282,5.282,0,0,0,828.175,163.618Zm0,8.656a3.38,3.38,0,1,1,3.38-3.38A3.383,3.383,0,0,1,828.175,172.274Z" transform="translate(-817.377 -158.183)" fill="#2d2926"/>
        <path id="패스_627" data-name="패스 627" d="M832.5,179.742h-8.554a6.442,6.442,0,0,1-6.434-6.435v-8.554a6.442,6.442,0,0,1,6.434-6.434H832.5a6.442,6.442,0,0,1,6.434,6.434v8.554A6.443,6.443,0,0,1,832.5,179.742Zm-8.554-19.408a4.424,4.424,0,0,0-4.42,4.419v8.554a4.425,4.425,0,0,0,4.42,4.42H832.5a4.425,4.425,0,0,0,4.419-4.42v-8.554a4.424,4.424,0,0,0-4.419-4.419Z" transform="translate(-817.515 -158.319)" fill="#2d2926"/>
      </g>
    </g>
  </g>
</svg>
