<svg xmlns="http://www.w3.org/2000/svg" width="36.993" height="36.993" viewBox="0 0 36.993 36.993">
  <g id="그룹_82" data-name="그룹 82" transform="translate(-1426.768 -4999.033)">
    <path id="패스_628" data-name="패스 628" d="M837.555,132.788h-6.272l-2.861-.945-2.838.945h-6.3a9.363,9.363,0,0,1-9.363-9.363V105.159a9.364,9.364,0,0,1,9.363-9.364h18.267a9.363,9.363,0,0,1,9.363,9.364v18.266A9.363,9.363,0,0,1,837.555,132.788Z" transform="translate(616.843 4903.238)" fill="#fff"/>
    <path id="패스_629" data-name="패스 629" d="M825.29,110.081v4.026h-4.639v5.282h4.639V132.6H831V119.389h4.257l.81-5.282H831v-3.428a2.641,2.641,0,0,1,2.978-2.854h2.3v-4.5a28.1,28.1,0,0,0-4.09-.357C828.019,102.973,825.29,105.5,825.29,110.081Z" transform="translate(616.261 4900.85)" fill="#2d2926"/>
  </g>
</svg>
