<svg xmlns="http://www.w3.org/2000/svg" width="851.782" height="315" viewBox="0 0 851.782 315">
  <g id="그룹_107" data-name="그룹 107" transform="translate(-275.066 -243.061)">
    <path id="패스_649" data-name="패스 649" d="M382.249,298.99,277.714,480.455a17.183,17.183,0,0,0,14.906,25.76l325.319-.315a15.233,15.233,0,0,0,13.169-22.862L524.528,298.851Z" transform="translate(-0.329 51.845)" fill="#c4c5c4"/>
    <path id="패스_650" data-name="패스 650" d="M388.853,250.832l-57.607,100,142.277-.139-57.8-99.891A15.513,15.513,0,0,0,388.853,250.832Z" transform="translate(51.82 0.001)" fill="#fff"/>
    <path id="패스_651" data-name="패스 651" d="M638.073,298.99,533.538,480.455a17.183,17.183,0,0,0,14.906,25.76l325.317-.315a15.233,15.233,0,0,0,13.169-22.862L780.352,298.851Z" transform="translate(237.847 51.845)" fill="#313131"/>
    <path id="패스_652" data-name="패스 652" d="M644.677,250.832l-57.607,100,142.277-.139-57.8-99.891A15.513,15.513,0,0,0,644.677,250.832Z" transform="translate(289.996 0.001)" fill="#fff"/>
    <path id="패스_653" data-name="패스 653" d="M655.647,450.288,760.182,268.821a17.183,17.183,0,0,0-14.906-25.76l-325.317.316a15.232,15.232,0,0,0-13.169,22.86L513.367,450.427Z" transform="translate(120.347 0)" fill="#6e6e6e"/>
    <path id="패스_654" data-name="패스 654" d="M545.24,450.475l57.607-100-142.278.139,57.8,99.891A15.513,15.513,0,0,0,545.24,450.475Z" transform="translate(172.497 99.816)" fill="#fff"/>
    <text id="_01" data-name="01" transform="translate(439.066 325.127)" fill="#c4c5c4" font-size="29" font-family="MyriadPro-Regular, Myriad Pro"><tspan x="0" y="0">01</tspan></text>
    <text id="_02" data-name="02" transform="translate(689.066 497.299)" fill="#6e6e6e" font-size="29" font-family="MyriadPro-Regular, Myriad Pro"><tspan x="0" y="0">02</tspan></text>
    <text id="_03" data-name="03" transform="translate(932.01 323.782)" fill="#313131" font-size="29" font-family="MyriadPro-Regular, Myriad Pro"><tspan x="0" y="0">03</tspan></text>
    <text id="MISSION" transform="translate(388.066 435.84)" fill="#fff" font-size="33" font-family="SegoeUI, Segoe UI"><tspan x="0" y="0">MISSION</tspan></text>
    <text id="건강한_아름다움을_통한_고객_행복_실현" data-name="건강한 아름다움을 통한
고객 행복 실현" transform="translate(454.066 481.031)" fill="#fff" font-size="22" font-family="MalgunGothic, Malgun Gothic"><tspan x="-116.026" y="0">건강한</tspan><tspan y="0" font-family="SegoeUI, Segoe UI"> </tspan><tspan y="0">아름다움을</tspan><tspan y="0" font-family="SegoeUI, Segoe UI"> </tspan><tspan y="0">통한</tspan><tspan y="0" font-family="SegoeUI, Segoe UI"></tspan><tspan x="-72.026" y="26">고객</tspan><tspan y="26" font-family="SegoeUI, Segoe UI"> </tspan><tspan y="26">행복</tspan><tspan y="26" font-family="SegoeUI, Segoe UI"> </tspan><tspan y="26">실현</tspan></text>
    <text id="대한민국_1등_미용중심_병원" data-name="대한민국 1등
미용중심 병원" transform="translate(704.066 358.842)" fill="#fff" font-size="22" font-family="MalgunGothic, Malgun Gothic"><tspan x="-63.943" y="0">대한민국</tspan><tspan y="0" xml:space="preserve" font-family="SegoeUI, Segoe UI"> 1</tspan><tspan y="0">등</tspan><tspan y="0" font-family="SegoeUI, Segoe UI"></tspan><tspan x="-69.013" y="26">미용중심</tspan><tspan y="26" font-family="SegoeUI, Segoe UI"> </tspan><tspan y="26">병원</tspan></text>
    <text id="VISION" transform="translate(651.066 313.651)" fill="#fff" font-size="33" font-family="SegoeUI, Segoe UI"><tspan x="0" y="0">VISION</tspan></text>
    <text id="고객집중_탁월함_지속성_개선" data-name="고객집중, 탁월함
지속성, 개선" transform="translate(948.066 481.03)" fill="#fff" font-size="22" font-family="MalgunGothic, Malgun Gothic"><tspan x="-82.398" y="0">고객집중</tspan><tspan y="0" font-family="SegoeUI, Segoe UI">, </tspan><tspan y="0">탁월함</tspan><tspan y="0" font-family="SegoeUI, Segoe UI"></tspan><tspan x="-60.398" y="26">지속성</tspan><tspan y="26" font-family="SegoeUI, Segoe UI">, </tspan><tspan y="26">개선</tspan></text>
    <text id="COREVALUE" transform="translate(860.066 435.839)" fill="#fff" font-size="33" font-family="SegoeUI, Segoe UI"><tspan x="0" y="0">COREVALUE</tspan></text>
  </g>
</svg>
