<svg xmlns="http://www.w3.org/2000/svg" width="94.244" height="78.212" viewBox="0 0 94.244 78.212">
  <g id="그룹_75" data-name="그룹 75" transform="translate(-112.917 -136.884)">
    <g id="그룹_73" data-name="그룹 73" transform="translate(112.917 136.884)">
      <path id="패스_633" data-name="패스 633" d="M207.152,179.107a21.913,21.913,0,0,0-.85-5.449,19.892,19.892,0,0,0-2.229-5.127,17.532,17.532,0,0,0-3.688-4.34,19.163,19.163,0,0,0-4.891-2.913c-.7-.286-1.4-.535-2.1-.765l.337-.192c1.038-.6,2.046-1.211,3.072-1.91a22.467,22.467,0,0,0,2.971-2.364,18.385,18.385,0,0,0,2.546-2.944,12.859,12.859,0,0,0,1.838-3.758,9,9,0,0,0,.11-4.7,9.413,9.413,0,0,0-2.348-4.1,11.344,11.344,0,0,0-1.684-1.48,10.185,10.185,0,0,0-1.915-1.055,13.039,13.039,0,0,0-4-.885c-1.31-.107-2.573-.1-3.8-.13-2.465-.089-4.816.022-7.132-.059-4.748-.1-9.465-.048-14.15.1l-14.06.341c-4.7.087-9.391.069-14.086.074l-7.042,0L127,137.421q-7.043-.029-14.084-.136v2.792c.8-.012,1.6-.019,2.4-.03a4.35,4.35,0,0,1,4.1,3.911l-.287,48.233,0-.015a4.37,4.37,0,0,1-3.982,4.5h-2.228v3.191h25.691v-3.2h-1.937a4.4,4.4,0,0,1-3.986-3.891l.144-24.134a27.918,27.918,0,0,1,5.423,5.559l3.045,3.834q1.582,1.957,3.355,3.906t3.716,3.848c1.291,1.27,2.638,2.522,4.069,3.714.715.6,1.46,1.166,2.22,1.725.378.285.77.539,1.169.814,0,0,22.364,16.347,42.59,3.348l-.018,0a19.055,19.055,0,0,0,5.958-5.833A18.177,18.177,0,0,0,207.152,179.107ZM169.278,140.2c4.7.014,9.377-.147,14.017,0,2.374.076,4.724.111,6.943.382a14.1,14.1,0,0,1,3.17.822,19.832,19.832,0,0,1,2.676,1.3,12.46,12.46,0,0,1,2.138,1.486l.23.219.215.235c.08.079.126.151.189.225a2.093,2.093,0,0,1,.171.221,3.529,3.529,0,0,1,.5.927,4.479,4.479,0,0,1,.171,2.265,10.009,10.009,0,0,1-.91,2.7,20.708,20.708,0,0,1-3.807,5.156c-1.338,1.216-2.8,2.443-4.246,3.619-.155-.038-.31-.081-.464-.117-1.736-.419-3.453-.757-5.149-1.092s-3.374-.676-5.019-1.062a10.323,10.323,0,0,1-3.988-1.963,20.26,20.26,0,0,1-4.635-5.446,55.822,55.822,0,0,1-3.636-9.875C168.325,140.2,168.8,140.2,169.278,140.2Zm-36.409,21.675.1-17.645h0a4.355,4.355,0,0,1,4.376-4.309l-.112-.017h3.849c4.436,0,8.872-.018,13.308.049,1.036.145,2.967.693,1.011,2.734ZM201.649,185a9.644,9.644,0,0,1-.694,2.646,14.693,14.693,0,0,1-3.44,4.793q-.237.234-.484.461a14.186,14.186,0,0,1-7.611,3.452,24.224,24.224,0,0,1-6.051-.225c-.887-.154-1.767-.335-2.639-.551a41.155,41.155,0,0,1-6.44-2.18,48.918,48.918,0,0,1-8.488-4.7c-.659-.451-1.295-.926-1.915-1.4s-1.226-.961-1.793-1.457c-.291-.242-.563-.491-.834-.737l-.84-.808c-.568-.538-1.114-1.107-1.668-1.673-1.108-1.132-2.192-2.322-3.265-3.553s-2.125-2.518-3.215-3.808a60.515,60.515,0,0,0-7.41-7.617,32.16,32.16,0,0,0-4.8-3.39,18.933,18.933,0,0,0-4.209-1.778l24.553-20.9.185-.158h0s4.744-3.055,4.175.863l0-.005c-.093.515-.18,1.031-.259,1.548a52.461,52.461,0,0,0-.558,5.492,33.542,33.542,0,0,0,.169,5.567,16.721,16.721,0,0,0,1.4,5.1c-.446.928-.869,1.851-1.283,2.791a35.167,35.167,0,0,0-1.264,3.3,8.724,8.724,0,0,0-.4,1.844,2.355,2.355,0,0,0,.185,1.235,1.3,1.3,0,0,0,.717.644c.1.035.111.036.152.049l.11.032.221.063c.834.22,1.648.378,2.481.519-.034.343-.04.689-.052,1.039a9.492,9.492,0,0,0,.147,2.1,2.8,2.8,0,0,0,.211.622,1.609,1.609,0,0,0,.246.369,1.134,1.134,0,0,0,.5.329.988.988,0,0,0,.158.036l.079.01h.173l.258-.006.5-.03c.143-.012.282-.029.424-.043h0a2.4,2.4,0,0,0-.53.766,1.447,1.447,0,0,0-.09.371,1.139,1.139,0,0,0,.317.908,1.613,1.613,0,0,0,.129.115l.057.046.137.109c.394.306.72.54,1.088.8q.388.272.8.52a10.65,10.65,0,0,0,.535,2.173,15.615,15.615,0,0,0,1.068,2.488,6.414,6.414,0,0,0,.392.619,2.8,2.8,0,0,0,.6.631,1.383,1.383,0,0,0,.532.239,1.783,1.783,0,0,0,.486.026,2.765,2.765,0,0,0,.777-.193,6.863,6.863,0,0,0,1.231-.652,12.365,12.365,0,0,0,1.088-.783l.009-.007a.284.284,0,0,0,.033-.03,12.94,12.94,0,0,1,2.965-2.216,11.538,11.538,0,0,1,3.524-1.272,9.416,9.416,0,0,1,3.762.035,27.8,27.8,0,0,1,3.646,1.124,27.908,27.908,0,0,0-3.624-1.218,9.717,9.717,0,0,0-3.826-.218,12.964,12.964,0,0,0-3.715,1.084,13.508,13.508,0,0,0-3.291,2.13l.041-.037a6.847,6.847,0,0,1-2.16,1.031,1.592,1.592,0,0,1-.482.037.477.477,0,0,1-.15-.04c-.041-.026,0-.013-.035-.049a1.829,1.829,0,0,1-.211-.358,5.067,5.067,0,0,1-.2-.517,20.749,20.749,0,0,1-.6-2.363,22.772,22.772,0,0,0-.588-2.422h0a.638.638,0,0,0-.223-.457l-.172-.146a10.161,10.161,0,0,0-1.106-.8c-.329-.217-.706-.42-1.038-.594l.013-.03c.16-.356.384-.751.58-1.151h0a.377.377,0,0,0-.194-.684l-.1-.007c-.626-.041-1.26-.084-1.874-.148l-.453-.053-.148-.023,0-.014a2.134,2.134,0,0,1-.032-.294,8.251,8.251,0,0,1,.154-1.7,12.12,12.12,0,0,0,.282-1.788h0l-.017-.341v-.005a.818.818,0,0,0-.867-.766,11.587,11.587,0,0,1-3.256-.276l-.265-.068a1.454,1.454,0,0,1-.014-.4,7.392,7.392,0,0,1,.327-1.518,25.357,25.357,0,0,1,1.232-3.12c.467-1.027.992-2.046,1.539-3.024h0l.013-.026a.8.8,0,0,0-.02-.753,14.681,14.681,0,0,1-1.555-4.9,32.138,32.138,0,0,1-.313-5.322c.018-1.143.087-2.289.189-3.433a49.468,49.468,0,0,0,.173,5.867,18.955,18.955,0,0,0,1.849,6.769,14.793,14.793,0,0,0,4.784,5.432,23.535,23.535,0,0,0,6.4,3.065,42.779,42.779,0,0,0,6.747,1.515c.558.089,1.147.154,1.68.229.493.06.984.142,1.472.234a24.294,24.294,0,0,1,2.88.763,19.11,19.11,0,0,1,5.27,2.627l.582.44.558.465.533.488c.172.162.3.317.461.473a8.361,8.361,0,0,1,1.423,2.2,17.1,17.1,0,0,1,1.3,5.617c.047.512.081,1.033.108,1.557A9.577,9.577,0,0,1,201.649,185ZM167.88,173.629h.02a.3.3,0,0,1,.043.006l.03.012-.073-.014A.133.133,0,0,1,167.88,173.629Zm2.285,2.358a.364.364,0,0,1,0,.119c-.006.037-.021.051-.024.039A.328.328,0,0,1,170.165,175.987Zm31.948-4.629c-.228-.237-.461-.494-.689-.71l-.684-.627-.71-.593-.735-.557a23.487,23.487,0,0,0-6.481-3.283,21.92,21.92,0,0,0-3.526-.817c-.6-.081-1.2-.149-1.8-.19-.562-.043-1.07-.059-1.6-.106a39.006,39.006,0,0,1-6.216-.934,20.181,20.181,0,0,1-5.65-2.213,12.253,12.253,0,0,1-4.192-4.076,16.553,16.553,0,0,1-2.064-5.765,62.278,62.278,0,0,1-.7-6.2,34.894,34.894,0,0,0,1.078,3.457,28.194,28.194,0,0,0,2.37,4.894,19.016,19.016,0,0,0,3.586,4.327,13.072,13.072,0,0,0,5.161,2.838c1.723.464,3.436.869,5.144,1.23a66.9,66.9,0,0,1,9.766,2.519,16.614,16.614,0,0,1,4.106,2.264,15.312,15.312,0,0,1,3.216,3.4,15.077,15.077,0,0,1,.905,1.482C202.3,171.584,202.212,171.467,202.113,171.358Z" transform="translate(-112.917 -136.884)" fill="#fff"/>
    </g>
    <g id="그룹_74" data-name="그룹 74" transform="translate(116.328 207.685)">
      <path id="패스_634" data-name="패스 634" d="M127.142,321.865h-1.787l-2.283-3.16a2.507,2.507,0,0,1-.19-.351h-.024v3.51H121.47V314.7h1.388v3.389h.024a3.029,3.029,0,0,1,.195-.36l2.181-3.028h1.67l-2.668,3.423Z" transform="translate(-121.47 -314.581)" fill="#fff"/>
      <path id="패스_635" data-name="패스 635" d="M136.142,318.2a3.88,3.88,0,0,1,.972-2.741A3.346,3.346,0,0,1,139.7,314.4a3.176,3.176,0,0,1,2.461,1.02,3.728,3.728,0,0,1,.932,2.617,3.87,3.87,0,0,1-.962,2.729,3.3,3.3,0,0,1-2.544,1.044,3.251,3.251,0,0,1-2.49-1.017A3.652,3.652,0,0,1,136.142,318.2Zm1.461-.078a2.848,2.848,0,0,0,.538,1.789,1.748,1.748,0,0,0,1.463.7,1.807,1.807,0,0,0,1.492-.664,2.8,2.8,0,0,0,.533-1.8,2.981,2.981,0,0,0-.516-1.85,1.728,1.728,0,0,0-1.461-.677,1.794,1.794,0,0,0-1.5.708A2.855,2.855,0,0,0,137.6,318.12Z" transform="translate(-130.29 -314.405)" fill="#fff"/>
      <path id="패스_636" data-name="패스 636" d="M162.941,321.865h-1.606l-1.139-1.894a2.74,2.74,0,0,0-.589-.755.869.869,0,0,0-.526-.18h-.506v2.829h-1.388V314.7h2.434q2.483,0,2.483,1.938a1.925,1.925,0,0,1-.416,1.234,2.251,2.251,0,0,1-1.185.743v.02a2.515,2.515,0,0,1,1.086,1.105Zm-4.367-6.086v2.172h.828a1.24,1.24,0,0,0,.9-.329,1.1,1.1,0,0,0,.339-.82q0-1.022-1.217-1.023Z" transform="translate(-142.942 -314.581)" fill="#fff"/>
      <path id="패스_637" data-name="패스 637" d="M178.18,321.865h-4.148V314.7h3.987v1.154h-2.6v1.826h2.415v1.149H175.42v1.889h2.76Z" transform="translate(-153.068 -314.581)" fill="#fff"/>
      <path id="패스_638" data-name="패스 638" d="M193.237,321.865h-1.514l-.58-1.714h-2.692l-.565,1.714h-1.514l2.653-7.167h1.6ZM190.8,319.05l-.877-2.6a3.623,3.623,0,0,1-.112-.593h-.034a3.151,3.151,0,0,1-.122.584l-.881,2.6Z" transform="translate(-160.488 -314.581)" fill="#fff"/>
      <path id="패스_639" data-name="패스 639" d="M206.44,321.865V314.7h2.439a2.953,2.953,0,0,1,1.729.441,1.422,1.422,0,0,1,.623,1.23,1.546,1.546,0,0,1-.365,1.015,2.006,2.006,0,0,1-.984.63v.015a1.958,1.958,0,0,1,1.207.565,1.609,1.609,0,0,1,.448,1.159,1.9,1.9,0,0,1-.691,1.539,2.8,2.8,0,0,1-1.85.574Zm1.388-6.1v1.879h.755a1.324,1.324,0,0,0,.876-.265.92.92,0,0,0,.316-.747q0-.866-1.236-.866Zm0,2.95V320.8h.954a1.456,1.456,0,0,0,.954-.282.964.964,0,0,0,.341-.784q0-1.018-1.344-1.017Z" transform="translate(-172.551 -314.581)" fill="#fff"/>
      <path id="패스_640" data-name="패스 640" d="M227.019,321.865h-4.148V314.7h3.987v1.154h-2.6v1.826h2.415v1.149h-2.415v1.889h2.76Z" transform="translate(-182.429 -314.581)" fill="#fff"/>
      <path id="패스_641" data-name="패스 641" d="M242.076,321.865h-1.514l-.58-1.714H237.29l-.565,1.714h-1.514l2.653-7.167h1.6Zm-2.439-2.814-.877-2.6a3.62,3.62,0,0,1-.112-.593h-.034a3.151,3.151,0,0,1-.122.584l-.881,2.6Z" transform="translate(-189.847 -314.581)" fill="#fff"/>
      <path id="패스_642" data-name="패스 642" d="M260.37,318.822q0,3.169-2.931,3.169-2.819,0-2.819-3.082V314.7h1.392v4.211q0,1.875,1.5,1.874,1.47,0,1.47-1.811V314.7h1.388Z" transform="translate(-201.515 -314.581)" fill="#fff"/>
      <path id="패스_643" data-name="패스 643" d="M277.355,315.852h-2.05v6.013h-1.392v-6.013h-2.045V314.7h5.487Z" transform="translate(-211.884 -314.581)" fill="#fff"/>
      <path id="패스_644" data-name="패스 644" d="M293.115,314.7l-2.347,4.591v2.575h-1.388v-2.547L287.1,314.7h1.587l1.28,2.843q.029.068.165.541h.02a2.439,2.439,0,0,1,.161-.531l1.324-2.853Z" transform="translate(-221.042 -314.581)" fill="#fff"/>
      <path id="패스_645" data-name="패스 645" d="M300.944,329.982a.671.671,0,0,1,.246-.535.868.868,0,0,1,.582-.209.841.841,0,0,1,.574.209.723.723,0,0,1,0,1.073.875.875,0,0,1-.594.207.82.82,0,0,1-.572-.214A.687.687,0,0,1,300.944,329.982Z" transform="translate(-229.364 -323.321)" fill="#fff"/>
      <path id="패스_646" data-name="패스 646" d="M310.3,319.323v2.541h-1.388V314.7h2.366q2.619,0,2.619,2.244a2.166,2.166,0,0,1-.791,1.748,2.879,2.879,0,0,1-1.989.633Zm0-3.52v2.434h.706q1.436,0,1.436-1.242,0-1.193-1.407-1.193Z" transform="translate(-234.156 -314.581)" fill="#fff"/>
      <path id="패스_647" data-name="패스 647" d="M323.925,319.989a2.971,2.971,0,0,0,1.952.706,1.718,1.718,0,0,0,.988-.231.711.711,0,0,0,.326-.606.833.833,0,0,0-.273-.6,4.916,4.916,0,0,0-1.319-.72,3.43,3.43,0,0,1-1.293-.9,1.81,1.81,0,0,1-.4-1.171,1.774,1.774,0,0,1,.75-1.517,3.257,3.257,0,0,1,1.967-.548,4.408,4.408,0,0,1,1.719.273v1.329a2.9,2.9,0,0,0-1.68-.477,1.777,1.777,0,0,0-.937.219.677.677,0,0,0-.358.6.783.783,0,0,0,.248.56,4.305,4.305,0,0,0,1.164.657,3.861,3.861,0,0,1,1.461.962,1.851,1.851,0,0,1,.409,1.2,1.8,1.8,0,0,1-.723,1.545,3.359,3.359,0,0,1-2.028.533,4.2,4.2,0,0,1-1.971-.4Z" transform="translate(-243.167 -314.405)" fill="#fff"/>
    </g>
  </g>
</svg>
