<svg xmlns="http://www.w3.org/2000/svg" width="55" height="55" viewBox="0 0 55 55">
  <g id="그룹_86" data-name="그룹 86" transform="translate(-1803 -615)">
    <g id="그룹_46" data-name="그룹 46" transform="translate(1803 615)">
      <circle id="타원_29" data-name="타원 29" cx="27.5" cy="27.5" r="27.5" fill="#bcbcbc"/>
      <g id="그룹_45" data-name="그룹 45" transform="translate(7.877 10.614)">
        <path id="패스_16" data-name="패스 16" d="M1019.966,1050.985a23.033,23.033,0,0,1-3.443-.208.592.592,0,0,0-.458.112c-2.266,1.591-4.531,3.184-6.871,4.667-.284.18-.581.34-.874.506a.929.929,0,0,1-.336.115c-.373.05-.593-.17-.514-.541.139-.652.334-1.291.516-1.932q.692-2.428,1.389-4.854c.041-.142.027-.209-.12-.284a17.81,17.81,0,0,1-5.742-4.484,13.112,13.112,0,0,1-3.008-6.457,12.221,12.221,0,0,1,1.4-7.894,16.023,16.023,0,0,1,5.507-5.789,21.5,21.5,0,0,1,8-3.1,23.952,23.952,0,0,1,6.443-.282,21.609,21.609,0,0,1,11.116,4.057,14.817,14.817,0,0,1,5.032,6.14,12.175,12.175,0,0,1-.927,11.695,16.364,16.364,0,0,1-5.934,5.584,21.82,21.82,0,0,1-7.409,2.618A23.99,23.99,0,0,1,1019.966,1050.985Z" transform="translate(-1000.354 -1020.463)" fill="#fff"/>
        <g id="그룹_44" data-name="그룹 44" transform="translate(4.703 10.7)">
          <path id="패스_17" data-name="패스 17" d="M1067.852,1050.5a1.316,1.316,0,0,1,.127-.178q1.429-1.434,2.862-2.864a.94.94,0,0,1,1.227-.155,1.085,1.085,0,0,1,.514,1.205,1,1,0,0,1-.278.426c-.782.781-1.561,1.565-2.348,2.341-.109.108-.1.17-.016.286q1.31,1.721,2.607,3.451a1.115,1.115,0,1,1-1.76,1.368c-.778-1.02-1.548-2.046-2.321-3.07a.649.649,0,0,0-.059-.079c-.091-.087-.116-.259-.258-.267-.109-.007-.364.389-.364.519,0,.767.006,1.535,0,2.3a1.094,1.094,0,0,1-.922,1.063,1.111,1.111,0,0,1-1.2-.638,1.147,1.147,0,0,1-.1-.481q0-3.8,0-7.6a1.114,1.114,0,1,1,2.227-.008c.006.728,0,1.456,0,2.184v.153Z" transform="translate(-1043.953 -1046.991)" fill="#bcbcbc"/>
          <path id="패스_18" data-name="패스 18" d="M1014.844,1052.566c0-1.058,0-2.117,0-3.175,0-.167-.029-.229-.213-.223-.5.015-.992.007-1.488,0a1.092,1.092,0,1,1-.01-2.183q2.827-.009,5.655,0a1.093,1.093,0,0,1,.306,2.152,1.268,1.268,0,0,1-.334.032c-.5,0-.992.007-1.488,0-.163,0-.195.05-.194.2q.007,3.164,0,6.33a1.091,1.091,0,0,1-.767,1.123,1.109,1.109,0,0,1-1.47-1.063C1014.839,1054.7,1014.844,1053.631,1014.844,1052.566Z" transform="translate(-1012.012 -1046.986)" fill="#bcbcbc"/>
          <path id="패스_19" data-name="패스 19" d="M1050.3,1051.887c0-1.257,0-2.514,0-3.771a1.119,1.119,0,0,1,1.026-1.117,1.142,1.142,0,0,1,1.214.839,1.537,1.537,0,0,1,.033.413c0,2.071,0,4.141,0,6.211,0,.177.045.22.219.218q1.091-.015,2.182,0a1.036,1.036,0,0,1,1.046.961,1.018,1.018,0,0,1-.975,1.068q-1.885.022-3.77,0a1.012,1.012,0,0,1-.972-1.03C1050.294,1054.414,1050.3,1053.151,1050.3,1051.887Z" transform="translate(-1034.85 -1046.989)" fill="#bcbcbc"/>
          <path id="패스_20" data-name="패스 20" d="M1035.924,1055.041q-.7-1.842-1.4-3.682c-.415-1.092-.825-2.185-1.247-3.274a1.583,1.583,0,0,0-1.721-1.042,1.636,1.636,0,0,0-1.252,1.1q-1.138,2.988-2.269,5.977a9.652,9.652,0,0,0-.5,1.438c-.165.8.1,1.2.885,1.314a1,1,0,0,0,1.209-.7c.139-.364.284-.725.415-1.091a.187.187,0,0,1,.214-.146c.516.006,1.032,0,1.548,0s1.019.006,1.528,0a.208.208,0,0,1,.236.169c.133.372.3.734.417,1.111a.913.913,0,0,0,.925.663,1.714,1.714,0,0,0,.7-.117.711.711,0,0,0,.49-.657A2.376,2.376,0,0,0,1035.924,1055.041Zm-4.413-2.079c-.218,0-.437-.007-.655,0-.142.006-.163-.03-.115-.162.289-.8.569-1.6.852-2.407l.211-.6,1.114,3.165Z" transform="translate(-1021.244 -1047.004)" fill="#bcbcbc"/>
        </g>
      </g>
    </g>
  </g>
</svg>
