<svg xmlns="http://www.w3.org/2000/svg" width="55" height="55" viewBox="0 0 55 55">
  <g id="그룹_87" data-name="그룹 87" transform="translate(-1805 -683)">
    <g id="그룹_49" data-name="그룹 49" transform="translate(1805.311 682.784)">
      <circle id="타원_30" data-name="타원 30" cx="27.5" cy="27.5" r="27.5" transform="translate(-0.311 0.216)" fill="#bcbcbc"/>
      <g id="그룹_48" data-name="그룹 48" transform="translate(8.044 9.516)">
        <path id="패스_21" data-name="패스 21" d="M1040.094,640.133c0-8.5-8.52-15.412-18.992-15.412s-18.992,6.914-18.992,15.412c0,7.619,6.756,14,15.883,15.206.618.133,1.46.407,1.673.936a3.9,3.9,0,0,1,.061,1.717s-.223,1.34-.271,1.626c-.083.48-.381,1.878,1.645,1.024s10.937-6.44,14.922-11.026h0c2.752-3.019,4.071-6.081,4.071-9.483" transform="translate(-1002.111 -624.721)" fill="#fff"/>
        <g id="그룹_47" data-name="그룹 47" transform="translate(6.23 11.305)">
          <path id="패스_22" data-name="패스 22" d="M1036.343,652.1h-1.332a.37.37,0,0,0-.37.369v8.275a.37.37,0,0,0,.37.369h1.332a.369.369,0,0,0,.37-.369v-8.275a.369.369,0,0,0-.37-.369" transform="translate(-1027.441 -652.104)" fill="#bcbcbc"/>
          <path id="패스_23" data-name="패스 23" d="M1050.3,652.1h-1.332a.369.369,0,0,0-.37.369v4.916l-3.793-5.121a.38.38,0,0,0-.028-.038l0,0-.022-.023-.007-.006a.2.2,0,0,0-.02-.017l-.009-.008-.019-.013-.011-.007-.02-.011-.012-.006-.021-.009-.012,0-.022-.007-.013,0-.021,0-.015,0-.02,0h-1.364a.37.37,0,0,0-.37.369v8.275a.37.37,0,0,0,.37.369h1.332a.369.369,0,0,0,.37-.369v-4.915l3.8,5.128a.371.371,0,0,0,.094.091l0,0,.023.014.01.006.018.009.018.007.011,0,.025.008h.006a.353.353,0,0,0,.095.012h1.332a.369.369,0,0,0,.37-.369v-8.275a.369.369,0,0,0-.37-.369" transform="translate(-1032.229 -652.104)" fill="#bcbcbc"/>
          <path id="패스_24" data-name="패스 24" d="M1022.893,659.045h-3.62v-6.572a.37.37,0,0,0-.37-.37h-1.332a.37.37,0,0,0-.37.37v8.274h0a.368.368,0,0,0,.1.255l.005.006.005,0a.366.366,0,0,0,.256.1h5.322a.37.37,0,0,0,.369-.37v-1.332a.369.369,0,0,0-.369-.37" transform="translate(-1017.201 -652.103)" fill="#bcbcbc"/>
          <path id="패스_25" data-name="패스 25" d="M1070.7,654.175a.369.369,0,0,0,.369-.37v-1.332a.37.37,0,0,0-.369-.37h-5.322a.369.369,0,0,0-.257.1l0,0-.006.007a.367.367,0,0,0-.1.255h0v8.274h0a.367.367,0,0,0,.1.255l.005.006.005,0a.368.368,0,0,0,.256.1h5.322a.37.37,0,0,0,.369-.37v-1.332a.37.37,0,0,0-.369-.37h-3.62v-1.4h3.62a.369.369,0,0,0,.369-.37v-1.332a.37.37,0,0,0-.369-.37h-3.62v-1.4Z" transform="translate(-1045.269 -652.103)" fill="#bcbcbc"/>
        </g>
      </g>
    </g>
  </g>
</svg>
