<svg xmlns="http://www.w3.org/2000/svg" width="55" height="55" viewBox="0 0 55 55">
  <g id="그룹_88" data-name="그룹 88" transform="translate(-1804 -751)">
    <g id="그룹_55" data-name="그룹 55" transform="translate(1803.77 751.338)">
      <circle id="타원_31" data-name="타원 31" cx="27.5" cy="27.5" r="27.5" transform="translate(0.23 -0.338)" fill="#bcbcbc"/>
      <g id="그룹_50" data-name="그룹 50" transform="translate(11.197 9.375)">
        <path id="WA_Logo" data-name="WA Logo" d="M2.444,25.826A17.226,17.226,0,1,1,17.369,34.45h-.007a17.217,17.217,0,0,1-8.231-2.1L0,34.749Zm7.633,3.721a14.29,14.29,0,0,0,7.286,1.995h.006A14.313,14.313,0,1,0,5.241,24.835l.341.541L4.136,30.658l5.418-1.421Zm10.1-4.3a24.7,24.7,0,0,1-2.454-.907c-4.318-1.863-7.137-6.209-7.352-6.5a8.37,8.37,0,0,1-1.757-4.451A4.824,4.824,0,0,1,10.124,9.8a1.58,1.58,0,0,1,1.148-.539c.287,0,.574,0,.824.015.031,0,.063,0,.1,0,.251,0,.563,0,.872.737.358.862,1.219,2.979,1.326,3.195a.791.791,0,0,1,.036.754,2.935,2.935,0,0,1-.43.718c-.215.252-.452.561-.646.754-.215.214-.439.447-.189.878A12.958,12.958,0,0,0,15.557,19.3a11.744,11.744,0,0,0,3.461,2.135c.43.216.682.18.933-.107s1.076-1.256,1.363-1.687.574-.359.968-.215,2.51,1.184,2.941,1.4.717.323.825.5a3.6,3.6,0,0,1-.251,2.046,4.434,4.434,0,0,1-2.905,2.046,7.07,7.07,0,0,1-1.044.082A5.464,5.464,0,0,1,20.18,25.247Z" transform="translate(0 0)" fill="#fff"/>
      </g>
    </g>
  </g>
</svg>
